<svg xmlns="http://www.w3.org/2000/svg" viewBox="0 0 32 32" width="29" height="29" style="fill: rgba(0, 101, 101, 1);border-color: rgba(0,0,0,0);border-width: bpx;border-style: undefined" filter="none"><path d="M16 1.778c7.854 0 14.222 6.368 14.222 14.222s-6.368 14.222-14.222 14.222c-7.854 0-14.222-6.368-14.222-14.222s6.368-14.222 14.222-14.222zM15.873 20.318c-0.409 0-0.743 0.117-0.996 0.391-0.295 0.252-0.432 0.587-0.432 0.996 0 0.391 0.137 0.724 0.432 0.997 0.252 0.272 0.587 0.409 0.996 0.409 0.393 0 0.743-0.137 1.036-0.389 0.272-0.276 0.409-0.606 0.409-1.017 0-0.409-0.137-0.743-0.409-0.996-0.274-0.274-0.626-0.391-1.036-0.391zM16.207 8.889c-1.428 0-2.56 0.409-3.38 1.25-0.841 0.821-1.25 1.934-1.25 3.362v0.032c0 0.574 0.462 1.038 1.036 1.038 0.572 0 1.036-0.464 1.036-1.038 0-0.012-0.004-0.032-0.004-0.032 0-0.862 0.174-1.543 0.526-2.012 0.391-0.548 1.035-0.821 1.916-0.821 0.702 0 1.25 0.196 1.639 0.587 0.372 0.391 0.569 0.919 0.569 1.602 0 0.508-0.178 0.976-0.53 1.426l-0.332 0.372c-1.209 1.074-1.931 1.888-2.228 2.421-0.443 0.798-0.363 1.536-0.363 1.536 0 0.572 0.466 1.036 1.038 1.036 0.574 0 0.953-0.395 1.036-1.036 0 0 0.107-0.597 0.322-0.988 0.176-0.35 0.45-0.684 0.8-0.996 0.94-0.802 1.486-1.31 1.66-1.525 0.469-0.624 0.722-1.426 0.722-2.382 0-1.172-0.389-2.11-1.15-2.795-0.782-0.702-1.797-1.035-3.067-1.035z"></path></svg>