<?xml version="1.0" encoding="utf-8"?>
<!-- Generator: Adobe Illustrator 19.0.0, SVG Export Plug-In . SVG Version: 6.00 Build 0)  -->
<svg version="1.1" id="Layer_1" xmlns="http://www.w3.org/2000/svg" xmlns:xlink="http://www.w3.org/1999/xlink" x="0px" y="0px"
	 viewBox="0 0 330 309" style="enable-background:new 0 0 330 309;" xml:space="preserve">
<style type="text/css">
	.st0{opacity:5.000000e-002;fill:#020202;enable-background:new    ;}
	.st1{fill:url(#SVGID_1_);}
	.st2{fill:#FFFFFF;}
	.st3{fill:#5D96FF;}
	.st4{fill:#F5F7FF;}
	.st5{fill:#323657;}
	.st6{fill:#E8E8E8;}
	.st7{fill:#4CA1F4;}
	.st8{fill:#E0E0E0;}
	.st9{fill:#E04F7F;}
	.st10{fill:url(#SVGID_2_);}
	.st11{fill:#2D3038;}
	.st12{fill:#EEA886;}
	.st13{fill:#292C47;}
	.st14{fill:#191B2B;}
	.st15{fill:#C6C9CC;}
	.st16{fill:#F45180;}
	.st17{fill:#0F324F;}
	.st18{fill:#E54242;}
	.st19{fill:#1D3B54;}
	.st20{fill:#3F444F;}
	.st21{opacity:0.1;fill:#B8B8B8;}
	.st22{opacity:0.3;fill:#869AC2;}
	.st23{opacity:0.95;fill:url(#XMLID_2_);enable-background:new    ;}
	.st24{fill:#96BFE6;}
	.st25{opacity:0.95;fill:url(#XMLID_3_);enable-background:new    ;}
	.st26{fill:#4598E6;}
	.st27{fill:#163342;}
	.st28{fill:#7561C1;}
	.st29{fill:#EDDAD3;}
	.st30{fill:#D6C5BE;}
	.st31{fill:#FFBEA4;}
	.st32{fill:#8367CE;}
	.st33{fill:#FAE6DE;}
	.st34{fill:#A77860;}
	.st35{fill:#EEA987;}
	.st36{fill:#706865;}
	.st37{fill:#B59074;}
	.st38{fill:#0E2D3D;}
	.st39{fill:#5C9AFF;}
	.st40{fill:#141954;}
	.st41{fill:#EB4747;}
	.st42{opacity:0.95;}
	.st43{fill:url(#XMLID_4_);}
	.st44{fill:#D8D5E0;}
	.st45{fill:#B4B1BA;}
	.st46{fill:#EAE6F2;}
</style>
<g>
	<ellipse id="XMLID_115_" class="st0" cx="248.8" cy="277" rx="51.2" ry="2.2"/>
	<g>
		<g>
			<linearGradient id="SVGID_1_" gradientUnits="userSpaceOnUse" x1="207.9071" y1="275.7062" x2="207.9071" y2="88.6778">
				<stop  offset="0" style="stop-color:#FF9F55"/>
				<stop  offset="1" style="stop-color:#FFD255"/>
			</linearGradient>
			<path class="st1" d="M323.4,93.1v40.6L212.8,244.3H104.1c-6.5,0-11.8-5.3-11.8-11.8V93.1c0-6.5,5.3-11.8,11.8-11.8h207.5
				c0.2,0,0.4,0,0.6,0C318.5,81.7,323.4,86.8,323.4,93.1z"/>
		</g>
		<g>
			<polygon class="st2" points="314.4,64 314.4,142.7 238.3,218.8 101.4,218.8 101.4,64 			"/>
		</g>
		<g>
			<rect x="101.4" y="64" class="st3" width="213" height="18.7"/>
		</g>
		<path class="st4" d="M138.4,76.9h-25.8c-1.3,0-2.3-1-2.3-2.3v-2.5c0-1.3,1-2.3,2.3-2.3h25.8c1.3,0,2.3,1,2.3,2.3v2.5
			C140.7,75.9,139.7,76.9,138.4,76.9z"/>
		<g>
			<g>
				<g>
					<path class="st5" d="M323.6,229.7C323.6,229.7,323.6,229.7,323.6,229.7C323.6,229.7,323.6,229.7,323.6,229.7z"/>
				</g>
			</g>
		</g>
		<g>
			<g>
				<rect x="141" y="107.9" class="st6" width="107.3" height="3.7"/>
				<rect x="141" y="120.1" class="st6" width="107.3" height="3.7"/>
				<rect x="141" y="131.9" class="st6" width="107.3" height="3.7"/>
				<rect x="141" y="144.1" class="st6" width="107.3" height="3.7"/>
				<rect x="141" y="157.8" class="st6" width="107.3" height="3.7"/>
				<rect x="141" y="169.9" class="st6" width="107.3" height="3.7"/>
				<rect x="141" y="181.7" class="st6" width="107.3" height="3.7"/>
				<rect x="141" y="193.9" class="st6" width="107.3" height="3.7"/>
			</g>
			<path class="st7" d="M121.3,120h5.4c2.7,0,4.9-2.2,4.9-4.9v-5.4c0-2.7-2.2-4.9-4.9-4.9h-5.4c-2.7,0-4.9,2.2-4.9,4.9v5.4
				C116.4,117.8,118.6,120,121.3,120z"/>
			<g>
				<path class="st7" d="M121.3,167.7h5.4c2.7,0,4.9-2.2,4.9-4.9v-5.4c0-2.7-2.2-4.9-4.9-4.9h-5.4c-2.7,0-4.9,2.2-4.9,4.9v5.4
					C116.4,165.5,118.6,167.7,121.3,167.7z"/>
				<g>
					<g>
						<g>
							<g>
								<g>
									<path class="st2" d="M123.5,163.8l-4.2-3.7c-0.3-0.3-0.4-0.8-0.1-1.2c0.3-0.3,0.8-0.4,1.2-0.1l3,2.6l4.2-4.8
										c0.3-0.3,0.8-0.4,1.2-0.1c0.3,0.3,0.4,0.8,0.1,1.2L123.5,163.8z"/>
								</g>
							</g>
						</g>
					</g>
				</g>
			</g>
			<g>
				<path class="st7" d="M121.3,143.8h5.4c2.7,0,4.9-2.2,4.9-4.9v-5.4c0-2.7-2.2-4.9-4.9-4.9h-5.4c-2.7,0-4.9,2.2-4.9,4.9v5.4
					C116.4,141.5,118.6,143.8,121.3,143.8z"/>
				<g>
					<g>
						<g>
							<g>
								<g>
									<path class="st2" d="M123.5,139.8l-4.2-3.7c-0.3-0.3-0.4-0.8-0.1-1.2c0.3-0.3,0.8-0.4,1.2-0.1l3,2.6l4.2-4.8
										c0.3-0.3,0.8-0.4,1.2-0.1c0.3,0.3,0.4,0.8,0.1,1.2L123.5,139.8z"/>
								</g>
							</g>
						</g>
					</g>
				</g>
				<path class="st7" d="M121.3,191.7h5.4c2.7,0,4.9-2.2,4.9-4.9v-5.4c0-2.7-2.2-4.9-4.9-4.9h-5.4c-2.7,0-4.9,2.2-4.9,4.9v5.4
					C116.4,189.5,118.6,191.7,121.3,191.7z"/>
				<g>
					<g>
						<g>
							<g>
								<g>
									<path class="st2" d="M123.5,187.8l-4.2-3.7c-0.3-0.3-0.4-0.8-0.1-1.2c0.3-0.3,0.8-0.4,1.2-0.1l3,2.6l4.2-4.8
										c0.3-0.3,0.8-0.4,1.2-0.1c0.3,0.3,0.4,0.8,0.1,1.2L123.5,187.8z"/>
								</g>
							</g>
						</g>
					</g>
				</g>
			</g>
			<g>
				<path class="st2" d="M122.2,113.5c0-0.2,0-0.4,0-0.6s0.1-0.4,0.1-0.5c0.1-0.2,0.2-0.3,0.3-0.5c0.1-0.1,0.3-0.3,0.5-0.4
					c0.1-0.1,0.3-0.1,0.4-0.2c0.2-0.1,0.4-0.2,0.5-0.3c0.2-0.1,0.3-0.3,0.5-0.4c0.1-0.2,0.2-0.4,0.2-0.6c0-0.3-0.1-0.5-0.3-0.7
					c-0.2-0.2-0.4-0.2-0.7-0.2c-0.2,0-0.3,0-0.5,0.1c-0.1,0.1-0.3,0.1-0.4,0.2c-0.1,0.1-0.2,0.2-0.3,0.3c-0.1,0.1-0.1,0.2-0.2,0.3
					l-1.3-0.9c0.2-0.5,0.6-0.9,1.1-1.2c0.5-0.3,1-0.4,1.6-0.4c0.3,0,0.7,0,1,0.1s0.6,0.2,0.9,0.5c0.3,0.2,0.5,0.5,0.6,0.8
					c0.2,0.3,0.2,0.7,0.2,1.2c0,0.5-0.1,0.9-0.3,1.2c-0.2,0.3-0.5,0.6-0.9,0.9c-0.2,0.1-0.4,0.2-0.5,0.3c-0.2,0.1-0.4,0.2-0.5,0.3
					c-0.2,0.1-0.3,0.2-0.4,0.3c-0.1,0.1-0.1,0.3-0.1,0.5H122.2z M122.2,116.7v-1.9h1.7v1.9H122.2z"/>
			</g>
		</g>
		<g>
			<g>
				<path class="st8" d="M265.8,144.5h-10c-0.3,0-0.6-0.3-0.6-0.6v-2.1c0-0.3,0.3-0.6,0.6-0.6h10c0.3,0,0.6,0.3,0.6,0.6v2.1
					C266.4,144.2,266.2,144.5,265.8,144.5z"/>
			</g>
			<g>
				<path class="st8" d="M265.8,152.5h-10c-0.3,0-0.6-0.3-0.6-0.6v-2.1c0-0.3,0.3-0.6,0.6-0.6h10c0.3,0,0.6,0.3,0.6,0.6v2.1
					C266.4,152.3,266.2,152.5,265.8,152.5z"/>
			</g>
			<g>
				<path class="st8" d="M265.8,160.6h-10c-0.3,0-0.6-0.3-0.6-0.6v-2.1c0-0.3,0.3-0.6,0.6-0.6h10c0.3,0,0.6,0.3,0.6,0.6v2.1
					C266.4,160.3,266.2,160.6,265.8,160.6z"/>
			</g>
			<g>
				<path class="st8" d="M265.8,168.7h-10c-0.3,0-0.6-0.3-0.6-0.6v-2.1c0-0.3,0.3-0.6,0.6-0.6h10c0.3,0,0.6,0.3,0.6,0.6v2.1
					C266.4,168.4,266.2,168.7,265.8,168.7z"/>
			</g>
			<g>
				<path class="st8" d="M265.8,176.8h-10c-0.3,0-0.6-0.3-0.6-0.6V174c0-0.3,0.3-0.6,0.6-0.6h10c0.3,0,0.6,0.3,0.6,0.6v2.1
					C266.4,176.5,266.2,176.8,265.8,176.8z"/>
			</g>
			<g>
				<path class="st8" d="M265.8,184.8h-10c-0.3,0-0.6-0.3-0.6-0.6v-2.1c0-0.3,0.3-0.6,0.6-0.6h10c0.3,0,0.6,0.3,0.6,0.6v2.1
					C266.4,184.6,266.2,184.8,265.8,184.8z"/>
			</g>
		</g>
		<g>
			<g>
				<path class="st8" d="M273.6,144.5h-2c-0.3,0-0.6-0.3-0.6-0.6v-2.1c0-0.3,0.3-0.6,0.6-0.6h2c0.3,0,0.6,0.3,0.6,0.6v2.1
					C274.2,144.2,274,144.5,273.6,144.5z"/>
			</g>
			<g>
				<path class="st8" d="M273.6,152.5h-2c-0.3,0-0.6-0.3-0.6-0.6v-2.1c0-0.3,0.3-0.6,0.6-0.6h2c0.3,0,0.6,0.3,0.6,0.6v2.1
					C274.2,152.3,274,152.5,273.6,152.5z"/>
			</g>
			<g>
				<path class="st8" d="M273.6,160.6h-2c-0.3,0-0.6-0.3-0.6-0.6v-2.1c0-0.3,0.3-0.6,0.6-0.6h2c0.3,0,0.6,0.3,0.6,0.6v2.1
					C274.2,160.3,274,160.6,273.6,160.6z"/>
			</g>
			<g>
				<path class="st8" d="M273.6,168.7h-2c-0.3,0-0.6-0.3-0.6-0.6v-2.1c0-0.3,0.3-0.6,0.6-0.6h2c0.3,0,0.6,0.3,0.6,0.6v2.1
					C274.2,168.4,274,168.7,273.6,168.7z"/>
			</g>
			<g>
				<path class="st8" d="M273.6,176.8h-2c-0.3,0-0.6-0.3-0.6-0.6V174c0-0.3,0.3-0.6,0.6-0.6h2c0.3,0,0.6,0.3,0.6,0.6v2.1
					C274.2,176.5,274,176.8,273.6,176.8z"/>
			</g>
			<g>
				<path class="st8" d="M273.6,184.8h-2c-0.3,0-0.6-0.3-0.6-0.6v-2.1c0-0.3,0.3-0.6,0.6-0.6h2c0.3,0,0.6,0.3,0.6,0.6v2.1
					C274.2,184.6,274,184.8,273.6,184.8z"/>
			</g>
		</g>
		<g>
			<path class="st9" d="M272,185.4c0,0-4.8-10.8,0.8-9.9c0,0,1.9,1.6,3.8,4.7c1.5,2.4,4.5,8.8,4.4,10.9c-0.1,2.2-1.6,3.8-3.3,7.2
				c0,0-3.4,6.4-3.6,7.2l-3.6-1.9c0,0,3.1-6.1,5.3-11.5L272,185.4z"/>
			<linearGradient id="SVGID_2_" gradientUnits="userSpaceOnUse" x1="245.4427" y1="169.0971" x2="258.9076" y2="206.0008">
				<stop  offset="0" style="stop-color:#40D5E6"/>
				<stop  offset="1" style="stop-color:#5577FF"/>
			</linearGradient>
			<polygon class="st10" points="288.6,212.7 224.9,201.8 226.6,192 290.2,202.9 			"/>
			
				<rect x="222.7" y="192.9" transform="matrix(0.9858 0.1678 -0.1678 0.9858 36.1777 -34.8406)" class="st11" width="3.1" height="7.5"/>
			<path class="st12" d="M244.4,277.1h-0.9c0,0,0.3-3.4-0.5-3.4c-0.8,0-2.9,2.8-4.1,3.2c-1.2,0.4-7.6,0.8-7.6-0.4
				c0-1.2,2.4-1.6,3.2-2c0.8-0.3,4.5-4,5.2-4.4c0.7-0.4,1.8-3.4,1.8-3.4l3.5-0.2c0,0,0.2,2.8,0.4,4.3c0.1,0.6,0.1,1.1,0.1,1.4
				C245.5,273.5,244.4,277.1,244.4,277.1z"/>
			<path class="st12" d="M267.2,276.4h-0.8v-3.2c-0.6,0.1-2.7,2-3.4,2.6c-0.6,0.6-1.5,0.5-4.3,0.7c-2.7,0.2-3-1.5-2.6-2
				c0.4-0.6,1.8-0.8,2.6-1.2c0.7-0.3,3.6-3.6,4.4-4.4c0.8-0.8,1.2-3,1.2-3l3.2,0.3c0,0,0,2,0.3,3.7v0c0,0,0,0,0,0
				c0,0.1,0.1,0.3,0.1,0.4C268.5,272.2,267.2,276.4,267.2,276.4z"/>
			<path class="st13" d="M255.3,204.6c0,0-1.2,2.9-1.3,3.6c-0.1,0.7-2.9,7.6-3.8,12.2c-0.5,2.8-1.8,11.4-2,12.5
				c-0.2,1.9-1.1,6-1.2,8c-0.1,1.1-5.4,17.6-6.7,26.2c0,0,3,0.5,5.3-0.2c0,0,4.6-8.9,7.2-21.5c1.6-7.6,2.9-11.7,4.1-14.8
				c1.2-3.1,8-12,8.7-13c0.7-1,5.2-6.5,0.9-12.5C262.6,199.1,255.3,204.6,255.3,204.6z"/>
			<path class="st13" d="M270.6,230c-0.4,2.6,0,5.9,0.8,15.3c0.8,9.4-1.4,20.8-1.4,20.8c-2.8,1-6,0-6,0c0.1-0.7,0-22.9,0-24.9
				s-0.6-4.2-0.7-6.5c-0.1-1.6-0.8-4.4-1.6-7.3c-0.2-0.9-0.5-1.8-0.7-2.6c0,0,0,0,0,0c-0.1-0.5-0.3-0.9-0.4-1.4
				c-1.1-4-2.7-19.3-2.7-19.3s8.5-6.9,12.7-0.4c4.1,6.5,2,11.2,1.9,12C272.2,216.5,271,227.4,270.6,230z"/>
			<path class="st14" d="M267,216.2c-0.1,0.1-4.3,9.6-5.4,11.2c-0.2-0.9-0.5-1.8-0.7-2.6c0,0,0,0,0,0S266.9,216.4,267,216.2z"/>
			<path class="st15" d="M267.2,276.4h-0.8v-3.2c-0.6,0.1-2.7,2-3.4,2.6c-0.6,0.6-1.5,0.5-4.3,0.7c-2.7,0.2-3-1.5-2.6-2
				c0.4-0.6,1.8-0.8,2.6-1.2c2.9,0.2,6.5-4,8.2-4c0.9,0,0.9,0.5,0.9,0.6v0c0,0,0,0,0,0c0,0.1,0.1,0.3,0.1,0.4
				C268.5,272.2,267.2,276.4,267.2,276.4z"/>
			<path class="st15" d="M244.4,277.1h-0.9c0,0,0.3-3.4-0.5-3.4c-0.8,0-2.9,2.8-4.1,3.2c-1.2,0.4-7.6,0.8-7.6-0.4
				c0-1.2,2.4-1.6,3.2-2c2.6,0,6.9-2.9,8.2-3.5c1.3-0.6,2.7-0.2,2.7-0.2c0.1,0.6,0.1,1.1,0.1,1.4
				C245.5,273.5,244.4,277.1,244.4,277.1z"/>
			<path class="st12" d="M262.8,168.7c0,0,1.4,3.6,0.3,6.4c0,0,5-0.3,5.2-0.9c0.2-0.6-0.2-6,0.5-7.6
				C269.5,165,262.8,168.7,262.8,168.7z"/>
			<path class="st16" d="M262.4,173.8c0,0-2.9,1-4.3,1.3c-1.3,0.3-4.1,1.6-3.9,6.6c0.2,5,1.1,9.3,1.4,11.4c0.3,2.1,0.1,7.6-0.4,10.2
				c0,0,7.1,1.8,15.4,0c0,0-1.5-4.5-1.4-5.7c0-1.2,4.9-10.7,5.1-12.3c0.2-1.5,1.2-8.2-1-9.7c-2.2-1.5-4-1.3-5-1.9
				C267.3,173.2,263.7,173.4,262.4,173.8z"/>
			<path class="st16" d="M273.7,211.2c-12.1,3.2-21.7,0-21.7,0c0.9-1.8,1.5-3.6,2-5.3c0,0,0,0,0,0c0.3-1.2,0.6-2.4,0.7-3.6v0
				c1-6.6-0.3-11.6-0.3-11.6c1.4-11.5,18.7-14.9,20.1-11.2c1.4,3.6-2.7,19.2-2.9,20.6C271.5,201.3,273.7,211.2,273.7,211.2z"/>
			<path class="st12" d="M267.2,154.3c-2-0.7-7.4-1.4-8.8,6.9c-1.4,8.3,1.6,8.5,4.7,8.2c3.1-0.2,8-5.8,8.3-7.6
				C271.8,160.1,272.9,156.2,267.2,154.3z"/>
			<path class="st17" d="M259.5,157.4c0,0,1.7,3.5,3.8,4.8c0,0,1.4,3.8,4.3,5.3c0,0,7.8-5.2,3.3-11.3
				C266.4,150,260,154.9,259.5,157.4z"/>
			<path class="st12" d="M263.1,161c0.2-0.4,1.3-1.1,1.9,0.1c0.5,1.2-1.4,3.3-1.9,3.2C262.6,164.1,262.5,162.6,263.1,161z"/>
			<path class="st17" d="M270.6,157.1c0.2-0.3,5.3-2.7,6.4,2.3c1.1,5-4.2,10.8-5.1,13.3c-0.9,2.5,0.4,8.4,0.4,8.4s-3.2-3-4.1-6.1
				C267.2,171.6,266.9,163,270.6,157.1z"/>
			<path class="st18" d="M270.9,157c0,0-1.6,1.3-1.8,3.2c0,0-0.3-1.5,0.3-2.5C270.1,156.8,270.9,157,270.9,157z"/>
			<path class="st19" d="M254.1,205.8c0.3-1.2,0.8-3.9,0.9-5.1l0,0c0,0,0.7-0.5,0.9-1c0.3-0.8,2.3-10.7,2.3-10.7
				S260.2,198.3,254.1,205.8z"/>
			<path class="st12" d="M245.4,203.4c0,0-2.2,1-2.7,1.2c-0.5,0.2-1.5-0.7-5-1c-0.3,0-0.9,0.3-0.7,0.7c0.1,0.4,1.7,1.5,2.3,1.7
				c0.7,0.2,3.8,1.4,5.3,0.8c1.5-0.6,2.6-2.6,2.6-2.6L245.4,203.4z"/>
			<path class="st9" d="M257.3,175.4c0,0-4.1,1.6-4.4,7.4c-0.2,5.7-0.5,8.7-0.7,9.6c-0.2,0.9-0.7,4.4-1.7,6.6
				c-1,2.1-7.7,5.4-7.7,5.4l2,2.6c0,0,10.4-5.5,11-7.2c0.6-1.7,2.9-13.5,3.1-15.5C259.1,182.7,261.2,175.6,257.3,175.4z"/>
			<path class="st20" d="M218.3,190.3c0,0.2,0,0.3,0,0.5h5.9c0-0.2,0-0.3,0-0.5H218.3z M152.4,188.6c0,0.2,0,0.4,0,0.5
				c0,0.7,0,1.5,0.1,2.2c0.2,2.1,0.5,4.2,1,6.1c1.6,6.4,4.9,12,9.4,16.5c0.2,0.2,0.3,0.3,0.5,0.5c0.7,0.7,1.4,1.3,2.2,1.9
				c6.2,5,14.1,8,22.7,8c0.1,0,0.3,0,0.4,0c6.5-0.1,12.6-1.9,17.9-5c2.4-1.4,4.6-3.1,6.6-5c4.1-4,7.3-8.9,9.2-14.5
				c0.3-0.8,0.5-1.7,0.8-2.6c0.4-1.5,0.7-3.1,0.9-4.8v0c0-0.3,0.1-0.7,0.1-1c0-0.3,0.1-0.7,0.1-1c0-0.2,0-0.3,0-0.5c0-0.3,0-0.7,0-1
				c0-0.2,0-0.4,0-0.6c0-18-13.2-32.9-30.5-35.5c-0.3-0.1-0.7-0.1-1-0.1c-0.4,0-0.7-0.1-1.1-0.1c-0.3,0-0.7-0.1-1-0.1
				c-0.8-0.1-1.6-0.1-2.3-0.1c-0.7,0-1.3,0-2,0.1c-1.1,0.1-2.2,0.2-3.3,0.3c-10.4,1.5-19.4,7.5-24.9,16c-1.1,1.7-2.1,3.5-2.9,5.3
				c-0.1,0.1-0.1,0.2-0.1,0.4c-0.1,0.1-0.1,0.2-0.1,0.3c-0.3,0.7-0.5,1.3-0.8,2c-0.6,1.8-1.1,3.6-1.4,5.5c-0.1,0.5-0.2,1-0.2,1.5
				c0,0.1,0,0.2,0,0.3c0,0,0,0,0,0c0,0,0,0.1,0,0.1c0,0,0,0.1,0,0.1v0c0,0,0,0,0,0.1c0,0,0,0.1,0,0.1c0,0.1,0,0.2,0,0.3
				c-0.1,0.6-0.1,1.1-0.1,1.7c0,0.1,0,0.2,0,0.2c0,0.1,0,0.2,0,0.4C152.4,187.8,152.4,188.2,152.4,188.6z M160.4,199.8l-0.1-0.3
				c-0.1-0.3-0.2-0.5-0.3-0.8l-0.2-0.6c-0.1-0.2-0.1-0.3-0.2-0.5c0,0,0,0,0,0c0,0,0-0.1,0-0.1c-0.1-0.3-0.2-0.5-0.2-0.8l-0.1-0.3
				c-0.1-0.3-0.1-0.6-0.2-0.9c0,0,0-0.1,0-0.1c-0.1-0.3-0.1-0.5-0.2-0.8c0-0.1,0-0.2-0.1-0.3c-0.1-0.3-0.1-0.7-0.2-1
				c-0.1-0.6-0.2-1.2-0.2-1.8c0-0.2,0-0.4-0.1-0.6c0,0,0,0,0,0c0-0.1,0-0.1,0-0.2c0-0.3,0-0.6,0-0.9v-0.1c0-0.1,0-0.1,0-0.2
				c0-0.2,0-0.5,0-0.7c0-0.2,0-0.5,0-0.7c0-0.9,0.1-1.9,0.2-2.8c0-0.1,0-0.2,0-0.3c0,0,0,0,0,0c0,0,0,0,0,0c0,0,0,0,0,0
				c0,0,0,0,0-0.1c0,0,0,0,0,0c0,0,0,0,0,0c0.6-4.5,2.1-8.6,4.5-12.3c2.7-4.2,6.5-7.8,10.9-10.2c1.2-0.6,2.4-1.2,3.6-1.7
				c0.4-0.2,0.8-0.3,1.2-0.4c2.3-0.8,4.7-1.3,7.2-1.5c0.8-0.1,1.6-0.1,2.4-0.1c0.2,0,0.5,0,0.7,0c0.3,0,0.6,0,0.8,0
				c0.2,0,0.4,0,0.6,0c0.1,0,0.1,0,0.2,0c0.3,0,0.7,0.1,1,0.1c0.1,0,0.2,0,0.3,0c0.1,0,0.3,0,0.4,0.1c0.2,0,0.3,0,0.5,0.1
				c0.3,0,0.7,0.1,1,0.2c0,0,0.1,0,0.1,0c0.3,0,0.5,0.1,0.8,0.2c0,0,0,0,0,0c0.1,0,0.2,0,0.3,0.1c0.2,0.1,0.5,0.1,0.7,0.2
				c0.1,0,0.2,0,0.3,0.1c0.3,0.1,0.6,0.1,0.8,0.2c0.3,0.1,0.5,0.2,0.8,0.2c0.1,0,0.2,0.1,0.4,0.1c0.5,0.2,1,0.4,1.5,0.6
				c0.1,0.1,0.3,0.1,0.4,0.2c0.2,0.1,0.4,0.2,0.6,0.3c0.2,0.1,0.3,0.1,0.5,0.2c0.2,0.1,0.5,0.2,0.7,0.4c0.3,0.1,0.5,0.3,0.8,0.4
				c0.3,0.2,0.6,0.3,0.9,0.5c0.6,0.4,1.2,0.7,1.8,1.1c0.2,0.2,0.5,0.3,0.7,0.5c0.3,0.2,0.6,0.4,0.9,0.7c0.3,0.2,0.5,0.4,0.8,0.6
				c0.3,0.2,0.5,0.4,0.8,0.7c6,5.5,9.8,13.4,9.8,22.2c0,0.2,0,0.4,0,0.6c0,0.3,0,0.7,0,1c0,0.2,0,0.3,0,0.5c0,0.3-0.1,0.7-0.1,1
				c-0.1,1-0.2,1.9-0.4,2.8c-0.2,1-0.5,2-0.8,3c-0.2,0.8-0.5,1.5-0.8,2.3c-2,5-5.4,9.4-9.6,12.6c-1,0.8-2.1,1.5-3.2,2.1
				c-4.3,2.5-9.3,4-14.7,4.1c-0.1,0-0.3,0-0.4,0c-5.5,0-10.7-1.5-15.1-4.1c-4.8-2.8-8.8-6.9-11.4-11.9c-0.1-0.3-0.3-0.5-0.4-0.8
				l-0.2-0.5c-0.1-0.2-0.2-0.4-0.3-0.6l-0.1-0.2c-0.1-0.2-0.1-0.3-0.2-0.5L160.4,199.8z"/>
			<circle class="st21" cx="188.3" cy="188.6" r="29.9"/>
			<path class="st22" d="M208.5,166.4c0,0-39-4.8-46.7,36.3c0,0,0,0,0,0c-2.2-4.2-3.5-9-3.5-14.1c0-16.6,13.4-30,30-30
				C196.1,158.6,203.2,161.6,208.5,166.4z"/>
		</g>
	</g>
	<g id="XMLID_13_">
		
			<linearGradient id="XMLID_2_" gradientUnits="userSpaceOnUse" x1="61.819" y1="87.8927" x2="54.4899" y2="220.7326" gradientTransform="matrix(1 0 0 -1 0 309)">
			<stop  offset="0" style="stop-color:#D1D7E0"/>
			<stop  offset="1" style="stop-color:#EBEBFF"/>
		</linearGradient>
		<path id="XMLID_358_" class="st23" d="M58.8,148.3h-7.5c-24.9,0-45-20.1-45-45v-7.3c0-24.9,20.1-45,45-45h7.5
			c24.9,0,45,20.1,45,45v7.5C103.8,128.1,83.7,148.3,58.8,148.3z"/>
		<rect id="XMLID_357_" x="32.6" y="126.1" class="st24" width="45.1" height="2.2"/>
		<rect id="XMLID_356_" x="39" y="133.2" class="st24" width="32.3" height="2.2"/>
		
			<linearGradient id="XMLID_3_" gradientUnits="userSpaceOnUse" x1="149.2023" y1="220.2456" x2="149.2023" y2="278.6836" gradientTransform="matrix(1 0 0 -1 0 309)">
			<stop  offset="0" style="stop-color:#D1D7E0"/>
			<stop  offset="1" style="stop-color:#EBEBFF"/>
		</linearGradient>
		<path id="XMLID_341_" class="st25" d="M155.2,79.3h-12c-16.4,0-29.8-13.3-29.8-29.8v-4.9c0-16.4,13.3-29.8,29.8-29.8h12
			c16.4,0,29.8,13.3,29.8,29.8v4.9C184.9,66,171.6,79.3,155.2,79.3z"/>
		<g id="XMLID_339_">
			<rect id="XMLID_340_" x="146" y="67.1" class="st26" width="5.6" height="1"/>
		</g>
		<g id="XMLID_337_">
			<path id="XMLID_338_" class="st26" d="M166.2,26.5v1h6v5.6h1v-6.7h-7V26.5z M125.1,33.2h1v-5.6h6v-1h-7V33.2z M172.2,62.5v5.6h-6
				v1h7v-6.7h-1V62.5z M126.1,62.5h-1v6.7h7v-1h-6V62.5z"/>
		</g>
		<g id="XMLID_335_">
			<rect id="XMLID_336_" x="51.4" y="115.2" class="st26" width="7.6" height="1.4"/>
		</g>
		<g id="XMLID_333_">
			<path id="XMLID_334_" class="st26" d="M77.9,61.1v1.4h8.1V70h1.4v-9H77.9z M23,70h1.4v-7.6h8.1v-1.4H23V70z M85.9,109.1v7.6h-8.1
				v1.4h9.5v-9H85.9z M24.3,109.1h-1.4v9h9.5v-1.4h-8.1V109.1z"/>
		</g>
		<g id="XMLID_301_">
			<g id="XMLID_331_">
				<path id="XMLID_332_" class="st27" d="M55.4,34.2c0,0,4.7-3,9.1,2.4s2.7,10.7,1.8,15.6c-0.9,4.8-5.2,15.9-3.4,20.8
					c1.8,4.9-0.5,7.5-0.5,7.5s-14.8,3.8-13.1-18.4C51.1,39.7,55.4,34.2,55.4,34.2z"/>
			</g>
			<g id="XMLID_329_">
				<path id="XMLID_330_" class="st28" d="M46.4,83.5c0,0-4.3,11.5-8.5,22.2H26.8c1.7-5.2,3.4-10.9,3.6-11.9c0.4-2,0.5-7.9,2.8-12.1
					c2.3-4.1,7.7-5.7,7.7-5.7C49.9,76.5,46.4,83.5,46.4,83.5z"/>
			</g>
			<g id="XMLID_327_">
				<path id="XMLID_328_" class="st29" d="M74.2,94.8c0,0-1.7,5.6-3.4,11H34.6c-0.2-0.5-0.3-1-0.6-1.5c-2.6-6.1-3.9-11.4-2.6-14.9
					S40,76.3,41.9,76c1.9-0.4,7.3-2.9,7.3-2.9c3.5-0.5,8.7-0.3,10.4,0.3c1.7,0.6,11.5,1.6,15,4.3C78.8,80.9,74.2,94.8,74.2,94.8z"/>
			</g>
			<g id="XMLID_325_">
				<path id="XMLID_326_" class="st30" d="M47.5,85.2l-3.3-3.9L47.1,71C47.1,71,48.1,76.8,47.5,85.2z"/>
			</g>
			<g id="XMLID_323_">
				<path id="XMLID_324_" class="st31" d="M46.7,66.7c0,0,1.1,10,0.9,13.3c0,0,5.6,5.6,12.1-6.6c0,0-2.7-5-0.7-12
					C61,54.4,46.7,66.7,46.7,66.7z"/>
			</g>
			<g id="XMLID_321_">
				<polygon id="XMLID_322_" class="st12" points="47.5,80 47.5,85.2 54,80.3 				"/>
			</g>
			<g id="XMLID_319_">
				<polygon id="XMLID_320_" class="st30" points="47.5,85.2 50.2,81.8 59.3,72.8 62.3,75.6 				"/>
			</g>
			<g id="XMLID_317_">
				<path id="XMLID_318_" class="st32" d="M78,85.6c0,0-1.6,5.8-5.8,20.1H53.3c-0.6-7.6-0.9-13.6-0.8-15.4
					c0.4-5.1,8.1-16.7,8.1-16.7s4.7,0.6,9.9,1.7C76.4,76.6,78,85.6,78,85.6z"/>
			</g>
			<g id="XMLID_315_">
				<path id="XMLID_316_" class="st32" d="M45.1,74.9c-4.6,5.6-6.3,17.9-6.6,30.9h-4.2C29.4,95.6,30.7,91,30.7,91
					c2.5-8.7,10.1-14.9,10.1-14.9L45.1,74.9z"/>
			</g>
			<g id="XMLID_313_">
				<polygon id="XMLID_314_" class="st33" points="44.1,81.3 40,82.5 47.1,71 				"/>
			</g>
			<g id="XMLID_311_">
				<polygon id="XMLID_312_" class="st33" points="50.2,81.8 54,86.9 61.9,73.8 59.3,72.8 				"/>
			</g>
			<g id="XMLID_309_">
				<path id="XMLID_310_" class="st34" d="M46.9,68.9l0.2,2c0,0,4.5,0.9,10.4-6.3C57.4,64.6,53.3,69.7,46.9,68.9z"/>
			</g>
			<g id="XMLID_307_">
				<path id="XMLID_308_" class="st31" d="M48,69.1c-1.8-0.1-6.7-0.6-9.2-12.1c-3-14,3.6-21.2,9.3-22.6c5.6-1.3,10.9,0.6,13.8,8
					c0,0,2.1,5.6-1.3,15.8C57.1,68.3,49.9,69.1,48,69.1z"/>
			</g>
			<g id="XMLID_305_">
				<path id="XMLID_306_" class="st27" d="M52.5,43.6c0,0-7.6,0.5-14.7,11.1c0,0-3.3-12.8,5.3-18.6s14.7-0.8,16.8,1.7
					c0,0,3,0.7,3.1,6.4s3.9,14.4-4.5,18.5c0,0,0.8-6.5,0.1-8.1C57.9,53.1,55.3,54.1,52.5,43.6z"/>
			</g>
			<g id="XMLID_303_">
				<path id="XMLID_304_" class="st35" d="M58.2,52.1c0.4-1,1.4-1.4,2-0.3c0.6,1.1-0.1,5.2-1.6,5.6C57.1,57.9,57.5,54.1,58.2,52.1z"
					/>
			</g>
			<path id="XMLID_302_" class="st28" d="M85.3,105.8H72.9c-1.3-3.2-2.5-6-3.3-8.1c-2.7-6.7-13.3-19.3-6.5-23.6
				c0,0,8.9-0.5,13.3,4.6c4.4,5.2,4.2,11.4,5.3,14C82.7,94.8,84.3,101.7,85.3,105.8z"/>
		</g>
		<g id="XMLID_292_">
			<polyline id="XMLID_300_" class="st5" points="101.3,200.6 101.4,204.1 63.7,204.5 63.7,200.9 			"/>
			
				<rect id="XMLID_299_" x="86.8" y="184.7" transform="matrix(-0.2925 0.9563 -0.9563 -0.2925 313.6516 140.7245)" class="st5" width="35.8" height="3.3"/>
			<g id="XMLID_297_">
				<rect id="XMLID_298_" x="170" y="208.6" class="st36" width="2.9" height="85.6"/>
			</g>
			<g id="XMLID_295_">
				<rect id="XMLID_296_" x="60.1" y="203.4" class="st37" width="129.3" height="5.1"/>
			</g>
			<g id="XMLID_293_">
				<rect id="XMLID_294_" x="75.2" y="208.6" class="st36" width="2.9" height="85.6"/>
			</g>
		</g>
		<g id="XMLID_168_">
			<g id="XMLID_287_">
				<g id="XMLID_289_">
					<g id="XMLID_290_">
						<path id="XMLID_291_" class="st38" d="M55.6,123.8c0,0,6.1,3,4.6,11.1c-1.5,8.2-2.2,9.2-0.5,12.4c1.7,3.1,3.6,16.7,2.1,19.2
							c-1.5,2.5-18.7-11.3-21.1-22.9c-2.4-11.6,1.5-16.7,2.9-18.6C44.9,123,50.3,121.1,55.6,123.8z"/>
					</g>
				</g>
			</g>
			<g id="XMLID_285_">
				<path id="XMLID_286_" class="st39" d="M57.3,153c0,0,3.1,0.6,4.8,3.2c1.2,1.8,1.3,5.7,1.5,6.4c0.2,0.7,2.5,9.2,2.5,9.2l-6.4,4.3
					L57.3,153z"/>
			</g>
			<g id="XMLID_282_">
				<path id="XMLID_283_" class="st19" d="M81.2,297.5c0,0,4.2,5.6,3.6,6.5c-0.6,0.9-5,1-7.8,0s-2.7-7.7-4-10.6
					c-0.5-1.2,0.6-4.7,2.1-5s3.2,0.5,3.2,0.5S76.9,293.1,81.2,297.5z"/>
			</g>
			<g id="XMLID_277_">
				<g id="XMLID_280_">
					<path id="XMLID_281_" class="st12" d="M78.5,288.9c0,0,0.9,2.4,1.2,4.7c0.3,1.9,3,5.9,2.9,6.4c-0.1,0.5-3.6,1-5-0.3
						c-1.4-1.3-2.3-5.1-2.6-7.5c-0.3-2.1-0.7-3.2-0.7-3.2S77.2,287.5,78.5,288.9z"/>
				</g>
			</g>
			<g id="XMLID_273_">
				<path id="XMLID_276_" class="st19" d="M44.4,297.6c0,0,4,5.5,3.5,6.4c-0.6,0.9-5,1-7.8,0s-2.7-7.7-4-10.6
					c-0.5-1.2,0.6-4.7,2.1-5c1.5-0.3,3.3,0.5,3.3,0.5S40.2,293.2,44.4,297.6z"/>
			</g>
			<g id="XMLID_267_">
				<g id="XMLID_269_">
					<path id="XMLID_270_" class="st12" d="M41.7,289c0,0,0.3,2.6,0.8,4.5c0.5,1.9,3.3,6.1,3.1,6.6c-0.1,0.5-3.6,1-5-0.3
						c-1.4-1.3-2.5-5.1-2.6-7.5c-0.1-2.3,0.3-3.8,0.3-3.8S40.4,287.6,41.7,289z"/>
				</g>
			</g>
			<g id="XMLID_264_">
				<g id="XMLID_265_">
					<path id="XMLID_266_" class="st12" d="M62.1,196.6c0,0,3.6,16.8,4.4,21c0.8,4.2,3.1,24.8,3.4,28.3c0.2,3.5,3.7,16.6,3.6,17.9
						c-0.2,1.2,5.2,26.3,5.2,26.3s-1.8,1.5-3.8,0.1c-1-0.7-11.9-23.5-11.9-29.7c0-8.7-6.3-19.8-7.1-21.7
						c-7.7-17.9-6.1-23.4-7.1-24.6c-1-1.2-1.1,0.7-1.7,3.3c-0.6,2.6-1.8,24.9-2.6,27.7c-0.7,2.8-0.2,12.4-0.6,17.2
						c-0.4,4.8-2.2,26.6-2.2,26.6s-1.4,2.2-3.4,0.1c-0.4-0.5-3.4-24.3-3.5-30c-0.1-5.7-0.2-13.6-0.3-16.1c-1.5-23.8-5.3-27.2,0.6-44
						C46.3,167.5,62.1,196.6,62.1,196.6z"/>
				</g>
			</g>
			<g id="XMLID_259_">
				<path id="XMLID_261_" class="st40" d="M37.8,192c0,0-10.3,14.4-5.8,45.1c0,0,24.5,3.3,37.6-3.8c0,0-5.4-31.6-7.3-36.5
					C60,191.7,37.8,192,37.8,192z"/>
			</g>
			<g id="XMLID_257_">
				<polygon id="XMLID_258_" class="st19" points="73,293 73,298.9 73.7,298.9 73.7,294.4 				"/>
			</g>
			<g id="XMLID_253_">
				<polygon id="XMLID_256_" class="st19" points="36.2,293 36.2,298.9 36.9,298.9 36.9,294.4 				"/>
			</g>
			<g id="XMLID_249_">
				<path id="XMLID_251_" class="st29" d="M51.6,151c0,0,3.8,1.8,5.1,2c1.3,0.3,6.4,6.9,7.3,9.4c0.9,2.4,0,6-1.8,10.4
					c-1.8,4.2-0.1,5.7-0.9,10s-1.6,13.3-1.4,15.7c0.2,2.4-21.3,2.8-26.3-1.5c0,0,4.9-7.3,5.5-8.5c0.6-1,0.1-6.8-0.5-8.3
					c-0.6-1.5-4.4-14-4.4-14s-3.1-9.7-0.3-11.9c2.5-1.9,9.3-2.6,10.5-3C45.5,150.8,49.1,150.6,51.6,151z"/>
			</g>
			<g id="XMLID_245_">
				<path id="XMLID_247_" class="st30" d="M52.8,159.4l2.3-2.7l-2-7.1C53.1,149.6,52.4,153.5,52.8,159.4z"/>
			</g>
			<g id="XMLID_241_">
				<path id="XMLID_243_" class="st12" d="M53.4,146.6c0,0-0.1,0.9-0.2,2.3c-0.1,0.6-0.1,1.2-0.2,1.9c-0.2,1.9-0.3,4-0.2,5
					c0,0-3.9,3.9-8.5-4.6c0,0,1.9-3.5,0.5-8.4C43.4,138,53.4,146.6,53.4,146.6z"/>
			</g>
			<g id="XMLID_237_">
				<polygon id="XMLID_239_" class="st12" points="52.8,155.8 52.8,159.4 48.3,156 				"/>
			</g>
			<g id="XMLID_233_">
				<polygon id="XMLID_235_" class="st30" points="52.8,159.4 50.9,157 44.5,150.8 42.5,152.7 				"/>
			</g>
			<g id="XMLID_229_">
				<path id="XMLID_231_" class="st39" d="M43.6,151.4c0,0,5.3,8.1,5.5,11.7c0.3,3.5-2,30.2-3.7,38.8c-1.7,8.6-14.7-1-14.7-1
					s8.7-14.1,5.3-25.4c-3.3-11.3-4.5-15.8-4.5-15.8s1.1-6.2,5.2-7.1C40.3,151.8,43.6,151.4,43.6,151.4z"/>
			</g>
			<g id="XMLID_225_">
				<path id="XMLID_227_" class="st39" d="M64.4,163.4c0,0,1,3.4-2.8,10.9c0,0,0.1,9.7,0.2,12.6s2.2,13.8,2.2,13.8l-5.1,2.7
					c-0.7,0.4-1.7-0.2-1.6-1c1-8.7,4.4-41.5-2.9-50.2l2.9,0.9C57.3,153.1,62.6,157.3,64.4,163.4z"/>
			</g>
			<g id="XMLID_221_">
				<polygon id="XMLID_223_" class="st33" points="55.1,156.7 58,157.5 53.1,149.6 				"/>
			</g>
			<g id="XMLID_219_">
				<polygon id="XMLID_220_" class="st33" points="50.9,157 48.3,160.6 42.8,151.5 44.6,150.4 				"/>
			</g>
			
				<rect id="XMLID_217_" x="58.2" y="169.6" transform="matrix(0.7841 -0.6206 0.6206 0.7841 -96.1172 74.2669)" class="st41" width="1" height="11.4"/>
			<path id="XMLID_215_" class="st12" d="M54.3,179.1c0,0,0.7,0,1.1-0.3c0.8-0.6,1-2,2.4-1.9c1.3,0.1,2,4.3,1.6,5.1
				c-0.3,0.8-2.2,1.2-5,0.6C51.7,182.1,54.3,179.1,54.3,179.1z"/>
			<path id="XMLID_212_" class="st12" d="M57.3,176.9c0,0,1.9-0.7,4.2-1.1c2-0.4,4.3-0.6,4.5-0.2c0.3,0.4-1.9,0.7-3.8,1.2
				c-1.8,0.5-1.3,0.7-1.3,0.7s-0.1-0.1,1.9-0.2c2.2-0.2,4.4-0.2,4.6,0.2c0.1,0.2,0,0.4-0.7,0.5c0.5,0,0.5,0.1,0.6,0.3
				c0.1,1-3.1,1.7-4.3,2.1c1-0.2,1.7-0.3,1.3,0.4c-0.4,0.7-4.9,1.6-6.5,2.1C56,183.3,57.3,176.9,57.3,176.9z"/>
			<path id="XMLID_208_" class="st39" d="M37.5,152.7c-1.3-0.4-5.2,1-5.9,4.9c-0.7,4-0.9,8.5-1.5,10.7c-0.6,2.1-2.2,11.8-0.9,12.6
				c1.3,0.8,3.8,1.5,7.3,1.5c3.6,0,17.7,0.6,17.7,0.6l0.9-5c0,0-5.3-0.3-8.2-0.7c-2.5-0.4-5.9-1.4-10-1.9c0,0,0.8-5.9,1.5-7.7
				C39.2,166.1,43.5,154.6,37.5,152.7z"/>
			<g id="XMLID_204_" class="st42">
				
					<linearGradient id="XMLID_4_" gradientUnits="userSpaceOnUse" x1="55.5568" y1="134.9053" x2="80.2843" y2="134.9053" gradientTransform="matrix(1 0 0 -1 0 309)">
					<stop  offset="0" style="stop-color:#D1D7E0"/>
					<stop  offset="1" style="stop-color:#EBEBFF"/>
				</linearGradient>
				<polygon id="XMLID_206_" class="st43" points="55.5,186.7 69.7,183.9 80.3,161.5 65.1,163 				"/>
			</g>
			<g id="XMLID_196_">
				<g id="XMLID_199_">
					<path id="XMLID_201_" class="st12" d="M71.5,180.1c0,0,0.8-0.7,1.5-1.7s2.9-4.8,2.7-5.1c-0.2-0.2-3.6-0.3-4.2,0.2
						c-0.6,0.5,0.6,0.8,0.6,0.8s-1.8,0.2-1.7,0.7c0.1,0.5,1.2,0.4,1.2,0.4s-1.5,0.3-1.2,0.7c0.2,0.5,0.9,0.4,0.9,0.4
						s-1.3,0.2-1.1,0.7c0.2,0.5,2.2,1,1.9,1.4C71.9,179,71.5,180.1,71.5,180.1z"/>
				</g>
			</g>
			<g id="XMLID_187_">
				<g id="XMLID_189_">
					<g id="XMLID_191_">
						<path id="XMLID_193_" class="st35" d="M54.7,124.7c0,0,8.9,2.8,4,18c-4.8,15.3-16.9-1.8-15.6-11.1
							C44.4,122.3,54.7,124.7,54.7,124.7z"/>
					</g>
				</g>
			</g>
			<g id="XMLID_179_">
				<g id="XMLID_181_">
					<g id="XMLID_183_">
						<path id="XMLID_185_" class="st38" d="M59.6,133.6c0,0-4.4,4.3-11.8,4.8c0,0-2.8,3.3-3,4.6c0,0-6.5-11.2,1.5-17.9
							C54.5,118.5,62.7,130.9,59.6,133.6z"/>
					</g>
				</g>
			</g>
			<g id="XMLID_171_">
				<g id="XMLID_173_">
					<g id="XMLID_175_">
						<path id="XMLID_177_" class="st35" d="M48.1,138.7c-0.1-1.1-0.7-3.6-2.4-2.9c-1.6,0.7,0.1,5.8,1.2,5.5
							C46.9,141.3,48.2,141.3,48.1,138.7z"/>
					</g>
				</g>
			</g>
			<path id="XMLID_169_" class="st34" d="M53.2,148.9c-0.1,0.6-0.1,1.2-0.2,1.9l0,0c-5.1-2.5-5.9-6.1-5.9-6.2
				C50.7,149.2,53.2,148.9,53.2,148.9z"/>
		</g>
		<g id="XMLID_76_">
			<g id="XMLID_112_">
				<path id="XMLID_113_" class="st5" d="M171.8,58.4h-8.3c-0.1-0.7-0.2-1.4-0.3-2.1l0,0c-0.5-4.3-0.7-8.3-0.7-8.3s-2.4-11,4.5-11.7
					c0,0,1.8,0.6,2,1.3c0.4,2.9,1.4,9.3,1.4,10.8C170.6,49.3,171.3,54.5,171.8,58.4z"/>
			</g>
			<g id="XMLID_110_">
				<path id="XMLID_111_" class="st44" d="M167.4,36.6c-0.1,3-0.3,6.2-0.5,9.7c0,0-0.3,5.6-0.5,12.1h-29.3c-0.7-3.2-1.4-6-1.5-6.3
					l0,0l0,0l0,0c0,0-0.7,3.2-1.2,6.3h-7c0.9-7,3-22.7,4.1-23.5c1-0.7,7-3.1,10.2-4.3c1.4-0.6,2.5-0.9,2.8-0.9
					c0.7,0,9.6,0.8,9.6,0.8s1.3,0.4,2.6,1c2.2,1,5.6,2.6,8.2,3.8C165.6,35.6,166.6,36.1,167.4,36.6z"/>
			</g>
			<g id="XMLID_107_">
				<path id="XMLID_109_" class="st31" d="M144.4,29.6c0.6,5.9,7.2,5.9,7.2,5.9s2.7-2.4,2.6-4.2v-0.1c0-0.3-0.4-0.7-0.4-1.4
					c0-0.1,0-0.2,0-0.3c0-0.1,0-0.2,0-0.3c0-0.5,0-0.9,0.1-1.2c0-0.1,0-0.2,0-0.3c0-0.1,0-0.2,0-0.2s-1.1-1.1-2.4-2.5
					c-2.4-2.3-5.6-5.3-5.6-4.1c0,0.1,0,0.1,0,0.2C146.5,23.9,144.4,29.6,144.4,29.6z"/>
			</g>
			<path id="XMLID_105_" class="st45" d="M149,33.1l2.7,2.4c0,0-3.2-0.2-3.8-0.7L149,33.1z"/>
			<g id="XMLID_101_">
				<path id="XMLID_103_" class="st5" d="M164.8,35.2c-1.7-0.8-3.8-1.8-5.7-2.6c-0.9-0.4-1.7-0.8-2.5-1.1l-1.1-0.5
					c0.1,0.2,2.1,5.1,3.7,16c0.4,2.8,1,6.8,1.6,11.4h5.8c0.3-6.4,0.5-12,0.5-12c0.3-3.5,0.4-6.8,0.5-9.9
					C166.8,36.1,165.7,35.7,164.8,35.2z"/>
			</g>
			<g id="XMLID_92_">
				<path id="XMLID_99_" class="st5" d="M149.4,58.4h-12.7c-0.3-2.2-0.5-4.2-0.8-5.1c0,0-0.5,2.2-1.1,5.1h-8.3
					c0.9-7.8,2.7-22.6,3.7-23.4c0.8-0.6,6.8-2.7,9.9-3.9c0.5-0.2,1.1-0.4,1.5-0.6c0.6,0.7,7.3,13.1,7.9,23.2
					C149.6,54.8,149.5,56.4,149.4,58.4z"/>
			</g>
			<path id="XMLID_91_" class="st44" d="M154.8,33.5c0,0,0.2,3.4-2.6,3.5c-2.9,0.1-5.1-2.7-5.1-2.7l4.7,1.2l2.9-2.4L154.8,33.5z"/>
			<path id="XMLID_90_" class="st46" d="M144.8,28.5c0,0,2.7,3.5,4.1,4.6l-2.3,3.9l-4-6.8L144.8,28.5z"/>
			<path id="XMLID_89_" class="st45" d="M154.2,33.8l-2.4,1.8c0,0,2.1-3.9,2.2-5.7L154.2,33.8z"/>
			<polygon id="XMLID_88_" class="st46" points="154,29.9 155.5,31 157.3,36.2 154.2,33.8 			"/>
			<g id="XMLID_83_">
				<path id="XMLID_87_" class="st31" d="M161.7,12.3c0,0,1.7,4.2,0.6,4.7c-0.9,0.4,0.6,4.5,0.7,5.2c0.2,0.7-1.7,0.9-2.1,1.3
					c-0.4,0.4-2.1,5.3-3.6,5.3s-8.2-3.1-9.8-5.2c-1.7-2.1-2.3-11.1-0.6-14.6C148.4,5.5,158.7,5,161.7,12.3z"/>
			</g>
			<g id="XMLID_81_">
				<path id="XMLID_82_" class="st38" d="M162.1,13.3c0,0,2.6-4.1-1-7.7c-3.6-3.6-11.6,1.2-12.5,1.3c-0.8,0.1-5.8,1.2-4.2,8.8
					c1.5,6.7,1.6,6.9,1.6,6.9s2-3.6,2.9-4.1c1.4-0.8,4.4-0.3,4.4-0.3s-1-3.9,1.2-4.2C156.9,13.8,159.9,12.2,162.1,13.3z"/>
			</g>
			<g id="XMLID_78_">
				<path id="XMLID_80_" class="st12" d="M151.3,15.9c-0.1-0.5-0.5-2.8-2.5-1.7c-2,1.1,0.6,5.5,0.9,5.6
					C150,19.9,152.5,20.4,151.3,15.9z"/>
			</g>
			<path id="XMLID_77_" class="st34" d="M147.7,23.9c0,0.1,1.5,3.8,6.1,5.6c0-0.1,0-0.2,0-0.3c0-0.5,0-0.9,0.1-1.2
				c0-0.1,0-0.2,0-0.3C154,27.9,149.1,25.5,147.7,23.9z"/>
		</g>
		<ellipse id="XMLID_75_" class="st0" cx="115.5" cy="297.3" rx="108.5" ry="5.9"/>
	</g>
</g>
</svg>
